<?xml version="1.0" standalone="no"?>
<!DOCTYPE svg PUBLIC "-//W3C//DTD SVG 20010904//EN"
 "http://www.w3.org/TR/2001/REC-SVG-20010904/DTD/svg10.dtd">
<svg version="1.0" xmlns="http://www.w3.org/2000/svg"
 width="95.000000pt" height="95.000000pt" viewBox="0 0 95.000000 95.000000"
 preserveAspectRatio="xMidYMid meet">
<metadata>
Created by potrace 1.11, written by Peter Selinger 2001-2013
</metadata>
<g transform="translate(0.000000,95.000000) scale(0.100000,-0.100000)"
fill="#000000" stroke="none">
<path d="M265 844 c-99 -58 -188 -114 -197 -125 -16 -19 -18 -47 -18 -250 l0
-228 32 -24 c29 -21 90 -58 208 -125 19 -10 63 -36 97 -56 34 -20 70 -36 80
-36 29 0 397 215 409 240 14 27 18 428 5 463 -7 17 -62 55 -195 131 -103 59
-199 109 -214 111 -20 3 -73 -23 -207 -101z m394 -237 c1 -14 -3 -16 -18 -8
-14 8 -24 4 -47 -20 -37 -38 -116 -84 -190 -109 -77 -27 -79 -25 -12 13 61 35
110 75 146 122 21 26 22 31 8 41 -14 10 -8 15 36 31 l53 19 12 -36 c6 -19 12
-43 12 -53z m-396 -120 l0 -187 56 0 c270 -2 376 -6 376 -15 0 -13 -435 -19
-448 -6 -6 6 -9 91 -9 198 1 224 -1 206 14 201 8 -3 11 -59 11 -191z m407 -53
l0 -105 -32 3 -33 3 -1 90 c0 50 2 96 4 103 2 6 17 12 33 12 l29 0 0 -106z
m-105 -28 c1 -60 -1 -69 -19 -76 -39 -14 -45 -3 -42 73 2 40 4 72 5 73 0 0 13
0 28 -1 26 -1 27 -3 28 -69z m-100 -28 c1 -40 -2 -47 -21 -51 -34 -6 -41 4
-41 56 0 48 0 48 31 45 30 -3 31 -5 31 -50z m-100 -18 c1 -27 -2 -30 -31 -30
-27 0 -31 3 -31 26 0 17 7 28 21 33 31 12 41 5 41 -29z"/>
</g>
</svg>
